# xmcd
#
# Track frame offsets:
#	150
#	11035
#	27385
#	39610
#	51407
#	63332
#	75482
#	90785
#	105332
#	118657
#	132532
#	146557
#	159682
#	175432
#	195257
#	206157
#	216652
#	231707
#	244157
#	254732
#	270165
#	284702
#	307305
#	324800
#
# Disc length: 4586
#
# Revision: 3
# Processed by: cddbd v1.5.1PL0 Copyright (c) Steve Scherf et al.
# Submitted via: audiograbber 1.80
# Normalized: r1:DSETVAR1,TDELIM( - ),TSWAP
#
DISCID=6e11e818
DTITLE=Various Artist - Les années 50 - 60 - 70
DYEAR=1900
DGENRE=
TTITLE0=DJango Reinhardt - Brazil
TTITLE1=Chet Baker - Everything happens to me
TTITLE2=Eddie Barclay and Quincy Jones - Numero 13
TTITLE3=Eddie Constantine - Cigarettes, whisky et p'tites pepees
TTITLE4=Dalida - Come prima
TTITLE5=Henri Salvador - Petite fleur
TTITLE6=Nino Ferrer - La rua madureira
TTITLE7=Nicoletta - Il est mort le soleil
TTITLE8=Jacques Brel - Amsterdam
TTITLE9=Jean Ferrat - La montagne
TTITLE10=Hugues Aufray - Céline
TTITLE11=Michel Sardou - Petit
TTITLE12=Daniel Guichard - Mon vieux
TTITLE13=Leo Ferrer - Avec le temps
TTITLE14=Vince Taylor - Shakin' all over
TTITLE15=Frank Alamo - Ma biche
TTITLE16=Eddy Mitchell - Toujours un coin qui me rappelle
TTITLE17=Zanini - Tu veux, tu veux pas
TTITLE18=Brigitte Bardot - Nue au soleil
TTITLE19=Michel delpech - Pour un flirt
TTITLE20=Claude Nougaro - Tu verras
TTITLE21=Bernard Lavilliers - Les barbares
TTITLE22=Daniel Balavoine - Le chanteur
TTITLE23=Patrick Juvet - Où sont les femmes ?
EXTD=
EXTT0=
EXTT1=
EXTT2=
EXTT3=
EXTT4=
EXTT5=
EXTT6=
EXTT7=
EXTT8=
EXTT9=
EXTT10=
EXTT11=
EXTT12=
EXTT13=
EXTT14=
EXTT15=
EXTT16=
EXTT17=
EXTT18=
EXTT19=
EXTT20=
EXTT21=
EXTT22=
EXTT23=
PLAYORDER=
